<svg xmlns="http://www.w3.org/2000/svg" viewBox="0 0 1024 1024">
  <path fill="#000000" d="M512 0C229.2 0 0 229.2 0 512s229.2 512 512 512 512-229.2 512-512S794.8 0 512 0zm0 960C264.6 960 64 759.4 64 512S264.6 64 512 64s448 200.6 448 448-200.6 448-448 448z"/>
  <path fill="#000000" d="M512 128c-212.1 0-384 171.9-384 384s171.9 384 384 384 384-171.9 384-384-171.9-384-384-384zm0 704c-176.7 0-320-143.3-320-320s143.3-320 320-320 320 143.3 320 320-143.3 320-320 320z"/>
  <path fill="#000000" d="M512 256c-141.4 0-256 114.6-256 256s114.6 256 256 256 256-114.6 256-256-114.6-256-256-256zm0 448c-106 0-192-86-192-192s86-192 192-192 192 86 192 192-86 192-192 192z"/>
  <path fill="#000000" d="M512 384c-70.7 0-128 57.3-128 128s57.3 128 128 128 128-57.3 128-128-57.3-128-128-128zm0 192c-35.3 0-64-28.7-64-64s28.7-64 64-64 64 28.7 64 64-28.7 64-64 64z"/>
  <path fill="#000000" d="M512 512m-32 0a32 32 0 1 0 64 0 32 32 0 1 0-64 0"/>
</svg> 