<svg xmlns="http://www.w3.org/2000/svg" viewBox="0 0 1024 1024">
  <path fill="#47A248" d="M517.12 565.76c-11.52 0-22.4-2.56-32-6.4-9.6-3.84-17.92-9.6-24.32-17.92-6.4-8.32-10.88-18.56-13.44-30.72-2.56-12.16-3.84-25.6-3.84-40.32 0-14.72 1.28-28.16 3.84-40.32 2.56-12.16 7.04-22.4 13.44-30.72 6.4-8.32 14.72-14.08 24.32-17.92 9.6-3.84 20.48-6.4 32-6.4 11.52 0 22.4 2.56 32 6.4 9.6 3.84 17.92 9.6 24.32 17.92 6.4 8.32 10.88 18.56 13.44 30.72 2.56 12.16 3.84 25.6 3.84 40.32 0 14.72-1.28 28.16-3.84 40.32-2.56 12.16-7.04 22.4-13.44 30.72-6.4 8.32-14.72 14.08-24.32 17.92-9.6 3.84-20.48 6.4-32 6.4z"/>
  <path fill="#47A248" d="M517.12 0c-11.52 0-22.4 2.56-32 6.4-9.6 3.84-17.92 9.6-24.32 17.92-6.4 8.32-10.88 18.56-13.44 30.72-2.56 12.16-3.84 25.6-3.84 40.32 0 14.72 1.28 28.16 3.84 40.32 2.56 12.16 7.04 22.4 13.44 30.72 6.4 8.32 14.72 14.08 24.32 17.92 9.6 3.84 20.48 6.4 32 6.4 11.52 0 22.4-2.56 32-6.4 9.6-3.84 17.92-9.6 24.32-17.92 6.4-8.32 10.88-18.56 13.44-30.72 2.56-12.16 3.84-25.6 3.84-40.32 0-14.72-1.28-28.16-3.84-40.32-2.56-12.16-7.04-22.4-13.44-30.72-6.4-8.32-14.72-14.08-24.32-17.92-9.6-3.84-20.48-6.4-32-6.4z"/>
  <path fill="#47A248" d="M517.12 1024c-11.52 0-22.4-2.56-32-6.4-9.6-3.84-17.92-9.6-24.32-17.92-6.4-8.32-10.88-18.56-13.44-30.72-2.56-12.16-3.84-25.6-3.84-40.32 0-14.72 1.28-28.16 3.84-40.32 2.56-12.16 7.04-22.4 13.44-30.72 6.4-8.32 14.72-14.08 24.32-17.92 9.6-3.84 20.48-6.4 32-6.4 11.52 0 22.4 2.56 32 6.4 9.6 3.84 17.92 9.6 24.32 17.92 6.4 8.32 10.88 18.56 13.44 30.72 2.56 12.16 3.84 25.6 3.84 40.32 0 14.72-1.28 28.16-3.84 40.32-2.56 12.16-7.04 22.4-13.44 30.72-6.4 8.32-14.72 14.08-24.32 17.92-9.6 3.84-20.48 6.4-32 6.4z"/>
  <path fill="#47A248" d="M517.12 512c-11.52 0-22.4-2.56-32-6.4-9.6-3.84-17.92-9.6-24.32-17.92-6.4-8.32-10.88-18.56-13.44-30.72-2.56-12.16-3.84-25.6-3.84-40.32 0-14.72 1.28-28.16 3.84-40.32 2.56-12.16 7.04-22.4 13.44-30.72 6.4-8.32 14.72-14.08 24.32-17.92 9.6-3.84 20.48-6.4 32-6.4 11.52 0 22.4 2.56 32 6.4 9.6 3.84 17.92 9.6 24.32 17.92 6.4 8.32 10.88 18.56 13.44 30.72 2.56 12.16 3.84 25.6 3.84 40.32 0 14.72-1.28 28.16-3.84 40.32-2.56 12.16-7.04 22.4-13.44 30.72-6.4 8.32-14.72 14.08-24.32 17.92-9.6 3.84-20.48 6.4-32 6.4z"/>
</svg> 