<svg xmlns="http://www.w3.org/2000/svg" viewBox="0 0 448 512">
  <path fill="#339933" d="M224 508c-6.7 0-13.5-1.8-19.4-5.2l-61.7-36.5c-9.2-5.2-4.7-7-1.7-8 12.3-4.3 14.8-5.2 27.9-12.7 1.4-.8 3.2-.5 4.6.4l47.4 28.1c1.7 1 4.1 1 5.7 0l184.7-106.6c1.7-1 2.8-3 2.8-5V149.3c0-2.1-1.1-4-2.9-5.1L226.8 37.7c-1.7-1-4-1-5.7 0L36.6 144.3c-1.8 1-2.9 3-2.9 5.1v213.1c0 2 1.1 4 2.9 4.9l50.6 29.2c27.5 13.7 44.3-2.4 44.3-18.7V167.5c0-3 2.4-5.3 5.4-5.3h23.4c2.9 0 5.4 2.3 5.4 5.3V378c0 36.6-20 57.6-54.7 57.6-10.7 0-18.8 0-27.5-2.8l-50.6-29.2C1.8 379.6 0 376.7 0 373.5V149.3c0-3 1.6-5.8 4.1-7.1L192.6 35.9c5.6-3.2 13-3.2 18.6 0l184.7 106.7c2.5 1.3 4.1 4.1 4.1 7.1v213.1c0 3-1.6 5.8-4.1 7.1L211.3 502.8c-5.9 3.4-12.6 5.2-19.4 5.2zm84.3-356.9h-23.4c-2.9 0-5.4-2.3-5.4-5.3V114.5c0-2.9 2.4-5.3 5.4-5.3h23.4c2.9 0 5.4 2.3 5.4 5.3v31.3c0 2.9-2.4 5.3-5.4 5.3zM308.3 132c-10.7 0-20.1 5.8-25.3 14.6-4.7 8.2-7 19.7-7 34.5v23.4c0 2.9 2.4 5.3 5.4 5.3h23.4c2.8 0 5.1-2.3 5.3-5.1.2-2.6.3-5.1.3-7.6 0-9.5.7-16.4 2-20.8 1.6-5.2 4.1-7.7 7.5-7.7 3.3 0 5.8 2.5 7.5 7.7 1.3 4.4 2 11.3 2 20.8 0 2.5-.1 5-.3 7.6-.2 2.8-2.5 5.1-5.3 5.1h-23.4c-2.9 0-5.4 2.3-5.4 5.3v5.7c0 14.8 2.3 26.3 7 34.5 5.2 8.8 14.6 14.6 25.3 14.6 10.7 0 20.1-5.8 25.3-14.6 4.7-8.2 7-19.7 7-34.5v-23.4c0-2.9-2.4-5.3-5.4-5.3h-23.4c-2.8 0-5.1 2.3-5.3 5.1-.2 2.6-.3 5.1-.3 7.6 0 9.5.7 16.4 2 20.8 1.6 5.2 4.1 7.7 7.5 7.7 3.3 0 5.8-2.5 7.5-7.7 1.3-4.4 2-11.3 2-20.8 0-2.5.1-5 .3-7.6.2-2.8 2.5-5.1 5.3-5.1h23.4c2.9 0 5.4-2.3 5.4-5.3v-5.7c0-14.8-2.3-26.3-7-34.5-5.2-8.8-14.6-14.6-25.3-14.6z"/>
</svg> 