<svg xmlns="http://www.w3.org/2000/svg" viewBox="0 0 400 400">
  <path fill="#3178C6" d="M0 200V0h400v400H0"/>
  <path fill="#FFF" d="M87.7 200.7V217h52v148h36.9V217h52v-16c0-9 0-16.3-.4-20.3-.4-4.7-1.2-9.7-2.5-14.7-1.3-5-3.2-10.3-5.7-15.8-2.5-5.5-5.5-10.8-9-15.8-3.5-5-7.7-9.3-12.5-12.8-4.8-3.5-10-6.3-15.5-8.3-5.5-2-11.3-3-17.5-3-12.3 0-22.6 2.7-30.7 8-8.2 5.3-14.3 12.8-18.5 22.3-4.2 9.5-6.3 20.7-6.3 33.5zm36.8-5.8c0-7.8 1.2-14 3.5-18.7 2.3-4.7 5.7-8.3 10.2-10.8 4.5-2.5 10-3.8 16.3-3.8 6.3 0 11.8 1.3 16.3 3.8 4.5 2.5 7.8 6 10.2 10.8 2.3 4.7 3.5 10.8 3.5 18.3v5H124.5zm95.8 5.8v-16c0-9 0-16.3-.4-20.3-.4-4.7-1.2-9.7-2.5-14.7-1.3-5-3.2-10.3-5.7-15.8-2.5-5.5-5.5-10.8-9-15.8-3.5-5-7.7-9.3-12.5-12.8-4.8-3.5-10-6.3-15.5-8.3-5.5-2-11.3-3-17.5-3-12.3 0-22.6 2.7-30.7 8-8.2 5.3-14.3 12.8-18.5 22.3-4.2 9.5-6.3 20.7-6.3 33.5v16h52v148h36.9V217h52zm36.8-5.8c0-7.8 1.2-14 3.5-18.7 2.3-4.7 5.7-8.3 10.2-10.8 4.5-2.5 10-3.8 16.3-3.8 6.3 0 11.8 1.3 16.3 3.8 4.5 2.5 7.8 6 10.2 10.8 2.3 4.7 3.5 10.8 3.5 18.3v5h-60z"/>
</svg> 