<svg xmlns="http://www.w3.org/2000/svg" viewBox="0 0 1024 1024">
  <path fill="#646CFF" d="M512 0L0 512l512 512 512-512L512 0zm0 960L64 512 512 64l448 448-448 448z"/>
  <path fill="#646CFF" d="M512 128L128 512l384 384 384-384-384-384zm0 704L192 512l320-320 320 320-320 320z"/>
  <path fill="#646CFF" d="M512 256L256 512l256 256 256-256-256-256zm0 448L320 512l192-192 192 192-192 192z"/>
  <path fill="#646CFF" d="M512 384L384 512l128 128 128-128-128-128zm0 192L448 512l64-64 64 64-64 64z"/>
  <path fill="#646CFF" d="M512 512m-32 0a32 32 0 1 0 64 0 32 32 0 1 0-64 0"/>
</svg> 